<?xml version="1.0" encoding="utf-8"?>
<!DOCTYPE svg PUBLIC "-//W3C//DTD SVG 1.1//EN" "http://www.w3.org/Graphics/SVG/1.1/DTD/svg11.dtd">
<svg version="1.1" id="TEDxGlasgow" xmlns="http://www.w3.org/2000/svg" xmlns:xlink="http://www.w3.org/1999/xlink" x="0px" y="0px"
	 viewBox="0 190.5 500 119" style="enable-background:new 0 190.5 500 119;" xml:space="preserve">
<g id="logo">
	<g id="tagline">
		<path d="M171.464,262.182h3.368v16.932h-3.368V262.182z"/>
		<path style="fill:#FF2B06;" d="M5.65,272.663l-4.032-5.81h3.841l2.158,3.201l2.134-3.201h3.723l-4.032,5.738l4.529,6.521H10.13
			l-2.561-3.865l-2.561,3.865h-3.77L5.65,272.663z"/>
		<path d="M29.931,271.857H17.955v-2.538h11.976V271.857L29.931,271.857z M29.931,276.931H17.955v-2.538h11.976V276.931
			L29.931,276.931z"/>
		<path d="M39.107,264.956H35.74v-2.774h3.368v2.774H39.107z M35.74,266.853h3.368v12.26H35.74V266.853z"/>
		<path d="M41.288,266.853h3.201v1.707h0.071c0.854-1.375,2.323-2.039,3.747-2.039c3.581,0,4.481,2.015,4.481,5.051v7.541H49.42
			v-6.925c0-2.015-0.593-3.012-2.158-3.012c-1.826,0-2.609,1.02-2.609,3.509v6.426h-3.368v-12.258H41.288z"/>
		<path d="M63.624,277.548h-0.048c-0.783,1.327-2.158,1.897-3.723,1.897c-3.699,0-5.502-3.177-5.502-6.569
			c0-3.296,1.826-6.355,5.431-6.355c1.447,0,2.869,0.616,3.652,1.826H63.41h0.048v-6.166h3.368v16.932h-3.201
			C63.624,279.113,63.624,277.548,63.624,277.548z M60.685,269.059c-2.206,0-2.965,1.897-2.965,3.913
			c0,1.921,0.878,3.936,2.965,3.936c2.229,0,2.893-1.945,2.893-3.96C63.578,270.955,62.866,269.059,60.685,269.059z"/>
		<path d="M71.663,273.802c0.095,2.134,1.138,3.106,3.012,3.106c1.351,0,2.443-0.83,2.656-1.589h2.965
			c-0.948,2.893-2.965,4.127-5.738,4.127c-3.865,0-6.261-2.656-6.261-6.45c0-3.676,2.537-6.474,6.261-6.474
			c4.173,0,6.189,3.509,5.952,7.28H71.663L71.663,273.802z M77.141,271.666c-0.308-1.707-1.043-2.609-2.68-2.609
			c-2.134,0-2.75,1.66-2.798,2.609H77.141z"/>
		<path d="M82.025,266.853h3.201v1.566h0.048c0.806-1.304,2.134-1.897,3.652-1.897c3.841,0,5.572,3.106,5.572,6.591
			c0,3.273-1.802,6.331-5.383,6.331c-1.471,0-2.869-0.64-3.676-1.85h-0.048v5.834h-3.368v-16.575H82.025z M91.129,273.019
			c0-1.945-0.783-3.96-2.941-3.96c-2.205,0-2.917,1.969-2.917,3.96c0,1.993,0.759,3.889,2.941,3.889
			C90.418,276.907,91.129,275.01,91.129,273.019z"/>
		<path d="M98.813,273.802c0.095,2.134,1.138,3.106,3.012,3.106c1.351,0,2.443-0.83,2.656-1.589h2.965
			c-0.948,2.893-2.965,4.127-5.738,4.127c-3.865,0-6.261-2.656-6.261-6.45c0-3.676,2.537-6.474,6.261-6.474
			c4.173,0,6.189,3.509,5.952,7.28H98.813L98.813,273.802z M104.291,271.666c-0.308-1.707-1.043-2.609-2.68-2.609
			c-2.134,0-2.75,1.66-2.798,2.609H104.291z"/>
		<path d="M109.174,266.853h3.201v1.707h0.071c0.854-1.375,2.323-2.039,3.747-2.039c3.581,0,4.481,2.015,4.481,5.051v7.541h-3.368
			v-6.925c0-2.015-0.592-3.012-2.158-3.012c-1.826,0-2.609,1.02-2.609,3.509v6.426h-3.368L109.174,266.853L109.174,266.853z"/>
		<path d="M131.511,277.548h-0.048c-0.783,1.327-2.158,1.897-3.723,1.897c-3.699,0-5.502-3.177-5.502-6.569
			c0-3.296,1.826-6.355,5.43-6.355c1.447,0,2.87,0.616,3.652,1.826h-0.024h0.048v-6.166h3.368v16.932h-3.201L131.511,277.548
			L131.511,277.548z M128.57,269.059c-2.205,0-2.964,1.897-2.964,3.913c0,1.921,0.878,3.936,2.964,3.936
			c2.229,0,2.893-1.945,2.893-3.96C131.463,270.955,130.752,269.059,128.57,269.059z"/>
		<path d="M139.549,273.802c0.095,2.134,1.138,3.106,3.012,3.106c1.351,0,2.442-0.83,2.656-1.589h2.965
			c-0.948,2.893-2.965,4.127-5.738,4.127c-3.865,0-6.261-2.656-6.261-6.45c0-3.676,2.538-6.474,6.261-6.474
			c4.173,0,6.189,3.509,5.952,7.28H139.549L139.549,273.802z M145.026,271.666c-0.308-1.707-1.044-2.609-2.68-2.609
			c-2.134,0-2.75,1.66-2.798,2.609H145.026z"/>
		<path d="M149.91,266.853h3.202v1.707h0.071c0.854-1.375,2.323-2.039,3.747-2.039c3.581,0,4.481,2.015,4.481,5.051v7.541h-3.368
			v-6.925c0-2.015-0.593-3.012-2.158-3.012c-1.826,0-2.608,1.02-2.608,3.509v6.426h-3.368L149.91,266.853L149.91,266.853z"/>
		<path d="M167.766,266.853h2.466v2.253h-2.466v6.071c0,1.139,0.284,1.422,1.423,1.422c0.355,0,0.687-0.024,1.043-0.095v2.632
			c-0.569,0.095-1.304,0.119-1.969,0.119c-2.063,0-3.865-0.474-3.865-2.917v-7.234h-2.039v-2.253h2.039v-3.676h3.368V266.853z"/>
		<path d="M183.06,280.654c-0.735,1.969-1.897,2.774-4.22,2.774c-0.688,0-1.375-0.048-2.063-0.119v-2.774
			c0.64,0.048,1.304,0.143,1.969,0.119c1.162-0.119,1.542-1.328,1.162-2.3l-4.316-11.501h3.605l2.774,8.395h0.048l2.68-8.395h3.486
			L183.06,280.654z"/>
		<g>
			<path d="M7.209,291.871c3.865,0,6.355,2.562,6.355,6.474c0,3.889-2.49,6.45-6.355,6.45c-3.841,0-6.331-2.562-6.331-6.45
				C0.878,294.433,3.366,291.871,7.209,291.871z M7.209,302.258c2.299,0,2.988-1.969,2.988-3.913c0-1.969-0.687-3.937-2.988-3.937
				c-2.277,0-2.965,1.969-2.965,3.937C4.244,300.29,4.932,302.258,7.209,302.258z"/>
			<path d="M14.795,292.203h3.201v2.276h0.048c0.616-1.542,2.277-2.608,3.913-2.608c0.237,0,0.522,0.048,0.735,0.119v3.13
				c-0.308-0.072-0.806-0.119-1.21-0.119c-2.466,0-3.32,1.778-3.32,3.937v5.524h-3.368L14.795,292.203L14.795,292.203z"/>
			<path d="M35.331,303.681c0,2.015-0.712,5.43-6.355,5.43c-2.419,0-5.24-1.138-5.407-3.937h3.344
				c0.308,1.256,1.327,1.684,2.514,1.684c1.874,0,2.727-1.28,2.703-3.036v-1.612h-0.048c-0.735,1.28-2.206,1.898-3.676,1.898
				c-3.676,0-5.24-2.798-5.24-6.166c0-3.177,1.826-6.071,5.264-6.071c1.612,0,2.845,0.545,3.652,1.969h0.048v-1.636h3.201V303.681z
				 M32.129,298.18c0-1.993-0.688-3.77-2.869-3.77c-1.897,0-2.727,1.659-2.727,3.486c0,1.754,0.664,3.675,2.727,3.675
				C31.181,301.57,32.129,299.935,32.129,298.18z"/>
			<path d="M36.942,295.975c0.189-3.154,3.012-4.103,5.762-4.103c2.443,0,5.383,0.545,5.383,3.486v6.379
				c0,1.115,0.119,2.229,0.427,2.726h-3.416c-0.119-0.379-0.213-0.783-0.237-1.186c-1.067,1.115-2.633,1.518-4.127,1.518
				c-2.323,0-4.173-1.162-4.173-3.676c0-2.774,2.087-3.438,4.173-3.723c2.063-0.308,3.984-0.236,3.984-1.611
				c0-1.447-0.996-1.66-2.182-1.66c-1.28,0-2.11,0.522-2.229,1.85H36.942L36.942,295.975z M44.72,298.464
				c-0.569,0.498-1.755,0.522-2.798,0.711c-1.043,0.213-1.993,0.569-1.993,1.802c0,1.256,0.972,1.566,2.063,1.566
				c2.632,0,2.727-2.087,2.727-2.821L44.72,298.464L44.72,298.464z"/>
			<path d="M50.22,292.203h3.201v1.707h0.071c0.854-1.375,2.323-2.039,3.747-2.039c3.581,0,4.481,2.015,4.481,5.051v7.541h-3.368
				v-6.925c0-2.015-0.593-3.012-2.158-3.012c-1.826,0-2.609,1.02-2.609,3.51v6.426h-3.368v-12.26h0.003V292.203z"/>
			<path d="M66.796,290.307h-3.368v-2.774h3.368V290.307z M63.428,292.203h3.368v12.26h-3.368
				C63.428,304.463,63.428,292.203,63.428,292.203z"/>
			<path d="M68.218,301.926l6.379-7.185h-5.904v-2.538h10.339v2.538l-6.379,7.185h6.829v2.538H68.218V301.926L68.218,301.926z"/>
			<path d="M83.584,299.152c0.095,2.134,1.139,3.106,3.012,3.106c1.351,0,2.443-0.83,2.656-1.589h2.965
				c-0.948,2.893-2.965,4.127-5.738,4.127c-3.865,0-6.261-2.656-6.261-6.45c0-3.676,2.538-6.474,6.261-6.474
				c4.173,0,6.189,3.509,5.952,7.281L83.584,299.152L83.584,299.152z M89.06,297.018c-0.308-1.707-1.043-2.609-2.68-2.609
				c-2.134,0-2.75,1.659-2.798,2.609H89.06z"/>
			<path d="M102.695,302.898h-0.048c-0.783,1.327-2.158,1.897-3.723,1.897c-3.7,0-5.502-3.177-5.502-6.569
				c0-3.297,1.826-6.355,5.431-6.355c1.447,0,2.869,0.616,3.652,1.826h-0.024h0.048v-6.165h3.368v16.932h-3.201L102.695,302.898
				L102.695,302.898z M99.754,294.409c-2.206,0-2.964,1.897-2.964,3.913c0,1.921,0.876,3.937,2.964,3.937
				c2.229,0,2.893-1.945,2.893-3.961C102.647,296.306,101.936,294.409,99.754,294.409z"/>
			<path d="M118.179,290.663h-5.074v-3.13h13.872v3.13h-5.075v13.801h-3.723L118.179,290.663L118.179,290.663z"/>
			<path d="M128.445,287.532h12.663v3.13h-8.94v3.628h8.205v2.893h-8.205v4.149h9.129v3.13h-12.852L128.445,287.532L128.445,287.532
				z"/>
			<path d="M142.862,287.532h7.304c4.387,0,7.682,2.751,7.682,8.372c0,4.908-2.514,8.56-7.682,8.56h-7.304V287.532L142.862,287.532z
				 M146.585,301.333h3.32c2.158,0,4.221-1.327,4.221-5.074c0-3.414-1.186-5.596-4.885-5.596h-2.656V301.333L146.585,301.333z"/>
			<path d="M168.495,299.152c0.095,2.134,1.139,3.106,3.012,3.106c1.351,0,2.443-0.83,2.656-1.589h2.965
				c-0.948,2.893-2.965,4.127-5.738,4.127c-3.865,0-6.261-2.656-6.261-6.45c0-3.676,2.538-6.474,6.261-6.474
				c4.173,0,6.189,3.509,5.952,7.281L168.495,299.152L168.495,299.152z M173.973,297.018c-0.308-1.707-1.043-2.609-2.68-2.609
				c-2.134,0-2.75,1.659-2.798,2.609H173.973z"/>
			<path d="M185.165,304.463h-3.747l-4.197-12.26h3.533l2.585,8.371h0.048l2.585-8.371h3.344L185.165,304.463z"/>
			<path d="M192.538,299.152c0.095,2.134,1.139,3.106,3.012,3.106c1.351,0,2.443-0.83,2.656-1.589h2.965
				c-0.948,2.893-2.965,4.127-5.739,4.127c-3.865,0-6.261-2.656-6.261-6.45c0-3.676,2.538-6.474,6.261-6.474
				c4.173,0,6.189,3.509,5.952,7.281L192.538,299.152L192.538,299.152z M198.016,297.018c-0.308-1.707-1.043-2.609-2.68-2.609
				c-2.134,0-2.75,1.659-2.798,2.609H198.016z"/>
			<path d="M202.9,292.203h3.201v1.707h0.072c0.854-1.375,2.323-2.039,3.747-2.039c3.581,0,4.483,2.015,4.483,5.051v7.541h-3.368
				v-6.925c0-2.015-0.593-3.012-2.158-3.012c-1.826,0-2.609,1.02-2.609,3.51v6.426H202.9V292.203L202.9,292.203z"/>
			<path d="M220.755,292.203h2.466v2.253h-2.466v6.071c0,1.139,0.284,1.423,1.423,1.423c0.356,0,0.688-0.024,1.043-0.095v2.632
				c-0.568,0.096-1.303,0.119-1.969,0.119c-2.063,0-3.865-0.475-3.865-2.917v-7.233h-2.039v-2.253h2.039v-3.676h3.368V292.203z"/>
		</g>
	</g>
	<g id="TEDx">
		<g>
			<path style="fill:#FF2B06;" d="M15.799,206.166H0v-14.45h48.95v14.45H33.156v41.926H15.799V206.166z"/>
			<path style="fill:#FF2B06;" d="M51.648,191.716h47.519v14.45h-30.15v7.025h30.149v13.427H69.017v7.025h30.157v14.449H51.648
				V191.716z"/>
			<path style="fill:#FF2B06;" d="M102.089,191.716h28.503c18.788,0,25.428,13.897,25.428,28.105
				c0,17.297-9.159,28.271-28.821,28.271h-25.111v-56.376H102.089z M119.458,233.643h6.792c10.82,0,12.401-8.768,12.401-14.064
				c0-3.546-1.112-13.415-13.667-13.415h-5.528v27.479H119.458z"/>
		</g>
		<g>
			<g>
				<path style="fill:#FF2B06;" d="M180.978,226.367l-5.299-8.786l-5.166,8.786h-12.726l12.081-17.766l-11.632-16.993h12.73
					l4.714,8.4l4.85-8.4h12.727l-11.63,16.993l12.082,17.766H180.978L180.978,226.367z"/>
			</g>
		</g>
	</g>
	<g id="city">
		<path d="M240.261,193.558c5.498,2.929,8.864,8.064,10.094,15.401h-7.528c-0.899-4.101-2.757-7.089-5.577-8.962
			c-2.82-1.873-6.374-2.808-10.666-2.808c-5.09,0-9.376,1.949-12.855,5.847c-3.481,3.898-5.221,9.707-5.221,17.426
			c0,6.675,1.436,12.109,4.308,16.298c2.871,4.192,7.552,6.287,14.043,6.287c4.968,0,9.082-1.471,12.341-4.414
			c3.257-2.942,4.925-7.701,5.002-14.273h-17.579v-6.306h24.648v30.037h-4.892l-1.834-7.223c-2.531,2.828-4.774,4.79-6.728,5.885
			c-3.284,1.885-7.456,2.828-12.519,2.828c-6.541,0-12.168-2.153-16.879-6.459c-5.138-5.4-7.706-12.814-7.706-22.242
			c0-9.401,2.511-16.878,7.533-22.432c4.771-5.299,10.949-7.948,18.532-7.948C231.974,190.501,236.47,191.52,240.261,193.558z"/>
		<path d="M263.043,191.952h6.879v56.139h-6.879V191.952z"/>
		<path d="M302.177,223.322c1.579-0.203,2.636-0.865,3.171-1.983c0.306-0.614,0.458-1.496,0.458-2.648
			c0-2.353-0.833-4.059-2.499-5.122c-1.665-1.061-4.049-1.592-7.15-1.592c-3.586,0-6.129,0.973-7.628,2.919
			c-0.84,1.076-1.387,2.676-1.64,4.801h-6.42c0.127-5.059,1.762-8.578,4.905-10.558c3.142-1.98,6.788-2.971,10.935-2.971
			c4.809,0,8.715,0.916,11.719,2.751c2.977,1.834,4.467,4.688,4.467,8.561v23.58c0,0.713,0.145,1.286,0.439,1.72
			c0.292,0.433,0.911,0.648,1.853,0.648c0.306,0,0.649-0.019,1.033-0.057c0.382-0.039,0.789-0.095,1.222-0.171v5.083
			c-1.069,0.306-1.885,0.496-2.447,0.573c-0.56,0.076-1.325,0.114-2.293,0.114c-2.369,0-4.09-0.841-5.159-2.522
			c-0.561-0.891-0.955-2.152-1.186-3.783c-1.4,1.834-3.414,3.426-6.037,4.776c-2.625,1.35-5.517,2.026-8.675,2.026
			c-3.797,0-6.897-1.151-9.306-3.454c-2.408-2.303-3.612-5.184-3.612-8.646c0-3.791,1.186-6.73,3.555-8.816s5.478-3.372,9.325-3.856
			L302.177,223.322z M287.692,241.905c1.453,1.143,3.171,1.715,5.159,1.715c2.42,0,4.763-0.559,7.032-1.679
			c3.821-1.857,5.732-4.896,5.732-9.119v-5.532c-0.84,0.536-1.919,0.984-3.242,1.342c-1.321,0.358-2.619,0.613-3.89,0.766
			l-4.157,0.534c-2.492,0.331-4.366,0.852-5.623,1.563c-2.127,1.195-3.191,3.102-3.191,5.72
			C285.513,239.197,286.24,240.761,287.692,241.905z"/>
		<path d="M327.856,235.251c0.209,2.293,0.793,4.051,1.755,5.273c1.768,2.216,4.836,3.325,9.205,3.325
			c2.601,0,4.889-0.555,6.864-1.663c1.977-1.108,2.965-2.821,2.965-5.14c0-1.759-0.79-3.095-2.369-4.012
			c-1.01-0.56-3.004-1.21-5.98-1.949l-5.554-1.375c-3.546-0.866-6.162-1.834-7.844-2.904c-3.004-1.859-4.505-4.433-4.505-7.72
			c0-3.872,1.414-7.006,4.242-9.401s6.628-3.592,11.405-3.592c6.249,0,10.753,1.809,13.516,5.426
			c1.729,2.293,2.569,4.764,2.519,7.414h-6.496c-0.131-1.545-0.692-2.951-1.682-4.219c-1.616-1.799-4.421-2.699-8.411-2.699
			c-2.66,0-4.674,0.495-6.044,1.486c-1.369,0.989-2.054,2.297-2.054,3.922c0,1.777,0.9,3.199,2.699,4.266
			c1.037,0.634,2.569,1.194,4.594,1.678l4.633,1.108c5.036,1.197,8.409,2.357,10.123,3.477c2.675,1.759,4.014,4.523,4.014,8.293
			c0,3.644-1.399,6.79-4.198,9.439c-2.799,2.649-7.062,3.975-12.787,3.975c-6.164,0-10.531-1.382-13.096-4.147
			c-2.566-2.764-3.94-6.184-4.121-10.262h6.611v0.001C327.86,235.251,327.856,235.251,327.856,235.251z"/>
		<path d="M385.653,208.805c1.294,0.892,2.613,2.191,3.96,3.897v-5.159h6.343v37.222c0,5.197-0.762,9.298-2.285,12.305
			c-2.844,5.553-8.214,8.331-16.111,8.331c-4.394,0-8.088-0.988-11.084-2.961c-2.996-1.974-4.672-5.063-5.028-9.268h6.992
			c0.33,1.834,0.988,3.248,1.977,4.242c1.545,1.528,3.978,2.293,7.298,2.293c5.245,0,8.679-1.86,10.299-5.579
			c0.964-2.191,1.407-6.101,1.331-11.733c-1.371,2.09-3.02,3.644-4.949,4.662c-1.929,1.019-4.479,1.528-7.651,1.528
			c-4.416,0-8.279-1.573-11.592-4.72c-3.311-3.146-4.966-8.35-4.966-15.611c0-6.853,1.668-12.203,5.005-16.051
			c3.337-3.847,7.366-5.77,12.086-5.77C380.477,206.436,383.268,207.227,385.653,208.805z M386.495,216.182
			c-2.079-2.446-4.727-3.669-7.947-3.669c-4.817,0-8.112,2.268-9.885,6.803c-0.939,2.42-1.407,5.593-1.407,9.515
			c0,4.612,0.931,8.121,2.794,10.529c1.864,2.408,4.366,3.612,7.51,3.612c4.917,0,8.376-2.229,10.379-6.687
			c1.116-2.522,1.673-5.465,1.673-8.828C389.613,222.385,388.574,218.628,386.495,216.182z"/>
		<path d="M436.083,211.248c3.616,3.513,5.426,8.68,5.426,15.502c0,6.594-1.594,12.041-4.782,16.343
			c-3.187,4.301-8.133,6.452-14.838,6.452c-5.592,0-10.031-1.902-13.32-5.707c-3.289-3.806-4.932-8.916-4.932-15.331
			c0-6.872,1.732-12.345,5.199-16.418c3.465-4.073,8.121-6.109,13.965-6.109C428.039,205.978,432.465,207.735,436.083,211.248z
			 M431.812,238.449c1.676-3.448,2.514-7.284,2.514-11.509c0-3.817-0.606-6.921-1.814-9.313c-1.914-3.766-5.214-5.65-9.9-5.65
			c-4.157,0-7.18,1.603-9.069,4.81s-2.834,7.074-2.834,11.604c0,4.351,0.945,7.978,2.834,10.879c1.89,2.901,4.888,4.351,8.995,4.351
			C427.045,243.621,430.137,241.896,431.812,238.449z"/>
		<path d="M453.146,207.163l7.873,32.254l7.987-32.254h7.719l8.026,32.063l8.369-32.063H500l-11.885,40.93h-7.146l-8.331-31.68
			l-8.065,31.68h-7.145l-11.809-40.93C445.617,207.163,453.146,207.163,453.146,207.163z"/>
	</g>
</g>
</svg>
