<?xml version="1.0" encoding="utf-8"?>
<!-- Generator: Adobe Illustrator 17.1.0, SVG Export Plug-In . SVG Version: 6.00 Build 0)  -->
<!DOCTYPE svg PUBLIC "-//W3C//DTD SVG 1.1//EN" "http://www.w3.org/Graphics/SVG/1.1/DTD/svg11.dtd">
<svg version="1.1" id="Layer_1" xmlns="http://www.w3.org/2000/svg" xmlns:xlink="http://www.w3.org/1999/xlink" x="0px" y="0px"
	 viewBox="0 0 400 400" style="enable-background:new 0 0 400 400;" xml:space="preserve">
<symbol  id="Community" viewBox="-120.001 -120 240 240">
	<g>
		<path style="fill:#FFFFFF;" d="M8.887-111.111c0-4.909-3.98-8.889-8.889-8.889s-8.889,3.98-8.889,8.889s3.98,8.889,8.889,8.889
			S8.887-106.202,8.887-111.111z"/>
		<path style="fill:#FFFFFF;" d="M63.252-91.781c2.455-4.251,0.998-9.688-3.254-12.142s-9.688-0.998-12.142,3.254
			c-2.455,4.251-0.998,9.688,3.254,12.142S60.797-87.529,63.252-91.781z"/>
		<path style="fill:#FFFFFF;" d="M100.668-47.858c4.251-2.455,5.708-7.891,3.254-12.142s-7.891-5.708-12.142-3.254
			c-4.251,2.455-5.708,7.891-3.254,12.142S96.416-45.403,100.668-47.858z"/>
		<path style="fill:#FFFFFF;" d="M111.109,8.889c4.909,0,8.889-3.98,8.889-8.889s-3.98-8.889-8.889-8.889s-8.889,3.98-8.889,8.889
			S106.2,8.889,111.109,8.889z"/>
		<path style="fill:#FFFFFF;" d="M91.779,63.254c4.251,2.455,9.688,0.998,12.142-3.254s0.998-9.688-3.254-12.142
			c-4.251-2.455-9.688-0.998-12.142,3.254S87.527,60.799,91.779,63.254z"/>
		<path style="fill:#FFFFFF;" d="M47.856,100.669c2.455,4.251,7.891,5.708,12.142,3.254c4.251-2.455,5.708-7.891,3.254-12.142
			c-2.455-4.251-7.891-5.708-12.142-3.254S45.401,96.418,47.856,100.669z"/>
		<path style="fill:#FFFFFF;" d="M-8.891,111.111c0,4.909,3.98,8.889,8.889,8.889s8.889-3.98,8.889-8.889
			c0-4.909-3.98-8.889-8.889-8.889S-8.891,106.202-8.891,111.111z"/>
		<path style="fill:#FFFFFF;" d="M-63.255,91.781c-2.455,4.251-0.998,9.688,3.254,12.142c4.251,2.455,9.688,0.998,12.142-3.254
			c2.455-4.251,0.998-9.688-3.254-12.142S-60.801,87.529-63.255,91.781z"/>
		<path style="fill:#FFFFFF;" d="M-100.671,47.858c-4.251,2.455-5.708,7.891-3.254,12.142c2.455,4.251,7.891,5.708,12.142,3.254
			c4.251-2.455,5.708-7.891,3.254-12.142S-96.42,45.403-100.671,47.858z"/>
		<path style="fill:#FFFFFF;" d="M-111.113-8.889c-4.909,0-8.889,3.98-8.889,8.889s3.98,8.889,8.889,8.889s8.889-3.98,8.889-8.889
			S-106.204-8.889-111.113-8.889z"/>
		<path style="fill:#FFFFFF;" d="M-91.782-63.254c-4.251-2.455-9.688-0.998-12.142,3.254c-2.455,4.251-0.998,9.688,3.254,12.142
			s9.688,0.998,12.142-3.254S-87.531-60.799-91.782-63.254z"/>
		<path style="fill:#FFFFFF;" d="M-47.859-100.669c-2.455-4.251-7.891-5.708-12.142-3.254s-5.708,7.891-3.254,12.142
			c2.455,4.251,7.891,5.708,12.142,3.254S-45.405-96.418-47.859-100.669z"/>
	</g>
	<g style="opacity:0.3;">
		<path style="fill:#FFFFFF;" d="M24.894-70.016c0.847-3.161-1.029-6.411-4.19-7.258s-6.411,1.029-7.258,4.19
			c-0.847,3.161,1.029,6.411,4.19,7.258S24.047-66.855,24.894-70.016z"/>
		<path style="fill:#FFFFFF;" d="M56.567-48.188c2.314-2.314,2.314-6.066,0-8.381c-2.314-2.314-6.066-2.314-8.381,0
			c-2.314,2.314-2.314,6.066,0,8.381C50.501-45.874,54.253-45.874,56.567-48.188z"/>
		<path style="fill:#FFFFFF;" d="M73.082-13.448c3.161-0.847,5.037-4.096,4.19-7.258s-4.096-5.037-7.258-4.19
			c-3.161,0.847-5.037,4.096-4.19,7.258C66.671-14.477,69.921-12.601,73.082-13.448z"/>
		<path style="fill:#FFFFFF;" d="M70.015,24.896c3.161,0.847,6.411-1.029,7.258-4.19s-1.029-6.411-4.19-7.258
			c-3.161-0.847-6.411,1.029-7.258,4.19C64.977,20.799,66.853,24.049,70.015,24.896z"/>
		<path style="fill:#FFFFFF;" d="M48.186,56.569c2.314,2.314,6.066,2.314,8.381,0c2.314-2.314,2.314-6.066,0-8.381
			s-6.066-2.314-8.381,0C45.872,50.502,45.872,54.254,48.186,56.569z"/>
		<path style="fill:#FFFFFF;" d="M13.446,73.084c0.847,3.161,4.096,5.037,7.258,4.19s5.037-4.096,4.19-7.258
			c-0.847-3.161-4.096-5.037-7.258-4.19C14.475,66.673,12.599,69.923,13.446,73.084z"/>
		<path style="fill:#FFFFFF;" d="M-24.897,70.016c-0.847,3.161,1.029,6.411,4.19,7.258s6.411-1.029,7.258-4.19
			c0.847-3.161-1.029-6.411-4.19-7.258C-20.801,64.979-24.05,66.855-24.897,70.016z"/>
		<path style="fill:#FFFFFF;" d="M-56.57,48.188c-2.314,2.314-2.314,6.066,0,8.381c2.314,2.314,6.066,2.314,8.381,0
			c2.314-2.314,2.314-6.066,0-8.381C-50.504,45.874-54.256,45.874-56.57,48.188z"/>
		<path style="fill:#FFFFFF;" d="M-73.086,13.448c-3.161,0.847-5.037,4.096-4.19,7.258s4.096,5.037,7.258,4.19
			c3.161-0.847,5.037-4.096,4.19-7.258C-66.675,14.477-69.924,12.601-73.086,13.448z"/>
		<path style="fill:#FFFFFF;" d="M-70.018-24.896c-3.161-0.847-6.411,1.029-7.258,4.19s1.029,6.411,4.19,7.258
			c3.161,0.847,6.411-1.029,7.258-4.19C-64.981-20.799-66.857-24.049-70.018-24.896z"/>
		<path style="fill:#FFFFFF;" d="M-48.19-56.569c-2.314-2.314-6.066-2.314-8.381,0c-2.314,2.314-2.314,6.066,0,8.381
			c2.314,2.314,6.066,2.314,8.381,0C-45.876-50.502-45.876-54.254-48.19-56.569z"/>
		<path style="fill:#FFFFFF;" d="M-13.449-73.084c-0.847-3.161-4.096-5.037-7.258-4.19s-5.037,4.096-4.19,7.258
			c0.847,3.161,4.096,5.037,7.258,4.19S-12.602-69.923-13.449-73.084z"/>
	</g>
	<g style="opacity:0.15;">
		<path style="fill:#FFFFFF;" d="M3.702-46.296C3.702-48.342,2.044-50-0.002-50s-3.704,1.658-3.704,3.704s1.658,3.704,3.704,3.704
			S3.702-44.251,3.702-46.296z"/>
		<path style="fill:#FFFFFF;" d="M26.354-38.242c1.023-1.771,0.416-4.037-1.356-5.059s-4.037-0.416-5.059,1.356
			c-1.023,1.771-0.416,4.037,1.356,5.059C23.066-35.864,25.331-36.47,26.354-38.242z"/>
		<path style="fill:#FFFFFF;" d="M41.944-19.941c1.771-1.023,2.378-3.288,1.356-5.059c-1.023-1.771-3.288-2.378-5.059-1.356
			c-1.771,1.023-2.378,3.288-1.356,5.059C37.907-19.525,40.172-18.918,41.944-19.941z"/>
		<path style="fill:#FFFFFF;" d="M46.295,3.704c2.046,0,3.704-1.658,3.704-3.704s-1.658-3.704-3.704-3.704
			c-2.045,0-3.704,1.658-3.704,3.704S44.249,3.704,46.295,3.704z"/>
		<path style="fill:#FFFFFF;" d="M38.24,26.356c1.771,1.023,4.037,0.416,5.059-1.356c1.023-1.771,0.416-4.037-1.356-5.059
			s-4.037-0.416-5.059,1.356C35.862,23.068,36.469,25.333,38.24,26.356z"/>
		<path style="fill:#FFFFFF;" d="M19.939,41.946c1.023,1.771,3.288,2.378,5.059,1.356c1.771-1.023,2.378-3.288,1.356-5.059
			c-1.023-1.771-3.288-2.378-5.059-1.356C19.523,37.909,18.916,40.174,19.939,41.946z"/>
		<path style="fill:#FFFFFF;" d="M-3.705,46.296c0,2.046,1.658,3.704,3.704,3.704s3.704-1.658,3.704-3.704
			c0-2.045-1.658-3.704-3.704-3.704S-3.705,44.251-3.705,46.296z"/>
		<path style="fill:#FFFFFF;" d="M-26.357,38.242c-1.023,1.771-0.416,4.037,1.356,5.059c1.771,1.023,4.037,0.416,5.059-1.356
			s0.416-4.037-1.356-5.059C-23.069,35.864-25.335,36.47-26.357,38.242z"/>
		<path style="fill:#FFFFFF;" d="M-41.947,19.941c-1.771,1.023-2.378,3.288-1.356,5.059c1.023,1.771,3.288,2.378,5.059,1.356
			c1.771-1.023,2.378-3.288,1.356-5.059C-37.911,19.525-40.176,18.918-41.947,19.941z"/>
		<path style="fill:#FFFFFF;" d="M-46.298-3.704c-2.046,0-3.704,1.658-3.704,3.704s1.658,3.704,3.704,3.704
			c2.045,0,3.704-1.658,3.704-3.704S-44.253-3.704-46.298-3.704z"/>
		<path style="fill:#FFFFFF;" d="M-38.244-26.356c-1.771-1.023-4.037-0.416-5.059,1.356c-1.023,1.771-0.416,4.037,1.356,5.059
			c1.771,1.023,4.037,0.416,5.059-1.356C-35.865-23.068-36.472-25.333-38.244-26.356z"/>
		<path style="fill:#FFFFFF;" d="M-19.942-41.946c-1.023-1.771-3.288-2.378-5.059-1.356s-2.378,3.288-1.356,5.059
			s3.288,2.378,5.059,1.356C-19.527-37.909-18.92-40.174-19.942-41.946z"/>
	</g>
</symbol>
<use xlink:href="#Community"  width="240" height="240" id="XMLID_1_" x="-120.001" y="-120" transform="matrix(1.6667 0 0 -1.6667 200.0021 200)" style="overflow:visible;"/>
<g>
</g>
<g>
</g>
<g>
</g>
<g>
</g>
<g>
</g>
<g>
</g>
<g>
</g>
<g>
</g>
<g>
</g>
<g>
</g>
<g>
</g>
<g>
</g>
<g>
</g>
<g>
</g>
<g>
</g>
<g>
</g>
<g>
</g>
<g>
</g>
</svg>
